<svg width="480" height="158" viewBox="0 0 480 158" fill="none" xmlns="http://www.w3.org/2000/svg">
  <rect x="0" y="0.522461" width="32.6255" height="77.5957" rx="6.26271" fill="#465FFF" stroke="#465FFF"/>
  <rect x="75.83" y="3.16797" width="32.6255" height="154.31" rx="6.26271" fill="#465FFF" stroke="#465FFF"/>
  <rect x="16.79" y="91.3438" width="32.6255" height="77.5957" rx="6.26271" transform="rotate(-90 16.79 91.3438)" fill="#465FFF" stroke="#465FFF"/>

  <rect x="163.27" y="12.8696" width="166.462" height="130.311" rx="28" stroke="#465FFF" stroke-width="24"/>
  <rect x="213.874" y="42.0487" width="22.1453" height="20.7141" rx="2.63433" fill="#465FFF" stroke="#465FFF" stroke-width="0.752667"/>
  <rect x="257.523" y="42.0487" width="22.1453" height="20.7141" rx="2.63433" fill="#465FFF" stroke="#465FFF" stroke-width="0.752667"/>
  <rect x="268.972" y="98.578" width="22.1453" height="20.7141" rx="2.63433" fill="#465FFF" stroke="#465FFF" stroke-width="0.752667"/>
  <rect x="202.425" y="98.578" width="22.1453" height="20.7141" rx="2.63433" fill="#465FFF" stroke="#465FFF" stroke-width="0.752667"/>
  <rect x="218.167" y="83.1932" width="57.5655" height="20.7141" rx="2.63433" fill="#465FFF" stroke="#465FFF" stroke-width="0.752667"/>

  <rect x="447.37" y="11.188" width="32.6255" height="132.562" rx="6.26271" fill="#465FFF" stroke="#465FFF"/>
  <rect x="358.24" y="33.4458" width="32.6255" height="107.028" rx="6.26271" transform="rotate(-90 358.24 33.4458)" fill="#465FFF" stroke="#465FFF"/>
  <rect x="358.24" y="155.18" width="30" height="107.028" rx="6.26271" transform="rotate(-90 358.24 155.18)" fill="#465FFF" stroke="#465FFF"/>
  <rect x="374.61" y="93.7812" width="32.6255" height="91.6638" rx="6.26271" transform="rotate(-90 374.61 93.7812)" fill="#465FFF" stroke="#465FFF"/>
</svg>